PathFileType	4	(X/Y/Z)	subject01_static.trc
DataRate	CameraRate	NumFrames	NumMarkers	Units	OrigDataRate	OrigDataStartFrame	OrigNumFrames
60.00	60.00	       6	49	mm	60.00	226	       300
Frame#	Time	R.ASIS			L.ASIS			V.Sacral			R.Thigh.Upper			R.Thigh.Front			R.Thigh.Rear			L.Thigh.Upper			L.Thigh.Front			L.Thigh.Rear			R.Knee.Lat			R.Knee.Med			L.Knee.Lat			L.Knee.Med			R.Shank.Upper			R.Shank.Front			R.Shank.Rear			L.Shank.Upper			L.Shank.Front			L.Shank.Rear			R.Ankle.Lat			R.Ankle.Med			L.Ankle.Lat			L.Ankle.Med			R.Heel			R.Midfoot.Sup			R.Midfoot.Lat			R.Toe.Tip			L.Heel			L.Midfoot.Sup			L.Midfoot.Lat			L.Toe.Tip			Sternum			R.Acromium			L.Acromium			R.Bicep			L.Bicep			R.Elbow			L.Elbow			R.Wrist.Med			R.Wrist.Lat			L.Wrist.Med			L.Wrist.Lat			R.Toe.Lat			R.Toe.Med			L.Toe.Lat			L.Toe.Med			R.Temple			L.Temple			Top.Head			
		X1	Y1	Z1	X2	Y2	Z2	X3	Y3	Z3	X4	Y4	Z4	X5	Y5	Z5	X6	Y6	Z6	X7	Y7	Z7	X8	Y8	Z8	X9	Y9	Z9	X10	Y10	Z10	X11	Y11	Z11	X12	Y12	Z12	X13	Y13	Z13	X14	Y14	Z14	X15	Y15	Z15	X16	Y16	Z16	X17	Y17	Z17	X18	Y18	Z18	X19	Y19	Z19	X20	Y20	Z20	X21	Y21	Z21	X22	Y22	Z22	X23	Y23	Z23	X24	Y24	Z24	X25	Y25	Z25	X26	Y26	Z26	X27	Y27	Z27	X28	Y28	Z28	X29	Y29	Z29	X30	Y30	Z30	X31	Y31	Z31	X32	Y32	Z32	X33	Y33	Z33	X34	Y34	Z34	X35	Y35	Z35	X36	Y36	Z36	X37	Y37	Z37	X38	Y38	Z38	X39	Y39	Z39	X40	Y40	Z40	X41	Y41	Z41	X42	Y42	Z42	X43	Y43	Z43	X44	Y44	Z44	X45	Y45	Z45	X46	Y46	Z46	X47	Y47	Z47	X48	Y48	Z48	X49	Y49	Z49	

226	3.750000	602.993840	1073.149660	158.368900	605.840940	1061.458010	-104.589390	406.512630	1079.285890	36.501820	540.817990	756.863100	224.277570	592.528380	682.314450	134.237520	520.897520	637.138980	226.844060	515.293820	767.940490	-168.021380	603.861150	719.199650	-112.070630	504.590970	659.122310	-160.358890	474.894650	553.574520	217.336330	468.450260	525.188230	98.334130	475.935580	528.710080	-150.227800	498.521820	520.034910	-36.189610	439.911220	468.884640	236.266750	513.319030	423.981350	184.260760	451.909060	383.762420	253.383500	467.457550	450.472440	-170.669370	516.528380	393.366580	-127.727320	445.660980	409.753080	-181.188570	437.447480	98.099500	255.844670	443.775020	103.568250	165.102430	442.973880	93.640570	-172.212040	464.968020	108.983320	-81.785990	366.618990	70.639700	210.272750	507.254060	80.331070	164.906680	509.416380	63.697760	272.923830	657.167910	50.652440	195.336550	371.579990	75.258910	-115.787570	544.812990	77.038730	-94.775080	523.412350	65.979810	-191.893920	654.602840	48.703500	-127.282180	600.395450	1422.564090	23.814480	485.104890	1549.480100	193.961410	481.971830	1559.556520	-147.384190	521.830200	1502.327880	358.552890	527.653500	1506.288700	-324.717350	517.581540	1469.537960	461.060360	492.292850	1475.107910	-427.329160	672.851810	1462.685790	685.042300	611.880980	1470.691410	710.944150	622.357300	1442.466430	-643.680300	549.734560	1447.015140	-662.554870	600.070130	39.564740	276.708070	593.896730	48.941890	168.105930	585.345090	39.916630	-201.712390	605.851750	51.651800	-101.025620	604.338680	1654.948610	127.412290	662.993840	1645.318970	1.525140	585.919980	1814.404660	32.195000	
227	3.767000	602.989560	1073.153320	158.349980	605.784610	1061.436890	-104.558070	406.470610	1079.237670	36.423930	540.810360	756.843440	224.281980	592.452210	682.341610	134.317610	520.802000	637.254390	226.857440	515.271180	767.900760	-168.016010	603.832640	719.186650	-112.092570	504.583220	659.099980	-160.341690	474.807160	553.600280	217.314990	468.436000	525.178470	98.325560	475.930850	528.699340	-150.232470	498.483890	520.061340	-36.191650	439.872280	468.926030	236.269100	513.314210	423.991270	184.250350	451.898830	383.781800	253.376970	467.470890	450.457760	-170.674850	516.577270	393.383330	-127.711650	445.739440	409.713590	-181.238940	437.412750	98.096130	255.836960	443.803340	103.545650	165.059280	442.973880	93.640570	-172.212040	464.980530	109.038240	-81.757840	366.665160	70.624710	210.281720	507.316990	80.366020	164.926610	509.389400	63.701360	272.913940	657.167970	50.652440	195.336560	371.611690	75.197040	-115.702140	544.812990	77.038730	-94.775080	523.181460	65.863920	-191.970260	654.599980	48.707960	-127.282570	600.359190	1422.603640	23.831910	485.085080	1549.474730	193.948320	481.913330	1559.526250	-147.493680	521.703740	1502.291750	358.507870	527.597600	1506.347410	-324.814090	517.429810	1469.470090	461.060700	492.253110	1475.027830	-427.367220	672.661680	1462.576050	685.054570	611.589660	1470.578000	710.969600	622.164610	1442.577270	-643.764710	549.584660	1447.054810	-662.664730	600.203250	39.566250	276.752720	593.855470	48.869040	168.156750	585.345090	39.916630	-201.712390	605.844730	51.653070	-101.056930	604.322510	1654.947020	127.403700	662.936220	1645.346190	1.554480	585.701480	1814.459840	32.263560	
228	3.783000	602.895510	1073.164670	158.356400	605.707400	1061.430910	-104.516580	406.423800	1079.178960	36.377470	540.803160	756.808290	224.299880	592.401000	682.370790	134.391420	520.694150	637.379270	226.860580	515.280270	767.882200	-168.025380	603.800840	719.166750	-112.108510	504.583980	659.082950	-160.299910	474.722690	553.620540	217.263340	468.429960	525.173520	98.325070	475.905270	528.701480	-150.236510	498.461030	520.078860	-36.193580	439.854000	468.952510	236.275880	513.287290	423.998290	184.229690	451.897160	383.792850	253.373260	467.489590	450.448730	-170.675000	516.631900	393.416230	-127.697530	445.779570	409.668880	-181.274980	437.394260	98.094450	255.835490	443.899050	103.503170	165.011980	442.973880	93.640580	-172.212040	464.982270	109.045910	-81.753910	366.713200	70.609120	210.291050	507.392610	80.412220	164.957640	509.363400	63.715580	272.900210	657.167970	50.652440	195.336580	371.581630	75.194530	-115.533160	544.812990	77.038730	-94.775080	523.330080	65.923730	-191.925870	654.595640	48.707900	-127.285670	600.305360	1422.653930	23.857850	485.079560	1549.472530	193.943630	481.838750	1559.490480	-147.614850	521.471440	1502.239010	358.465640	527.539860	1506.419430	-324.894130	517.095700	1469.437500	461.102330	492.237240	1474.918580	-427.387510	672.459290	1462.455570	685.109990	611.156190	1470.469970	710.996830	621.931950	1442.700560	-643.837950	549.436460	1447.124270	-662.755550	600.238710	39.575780	276.778290	593.775510	48.774410	168.192020	585.345090	39.916630	-201.712390	605.836180	51.651200	-101.102000	604.316040	1654.941040	127.388150	662.871030	1645.348630	1.578620	585.536930	1814.518190	32.316590	
229	3.800000	602.832520	1073.195560	158.371920	605.634700	1061.429440	-104.472650	406.381650	1079.112920	36.377330	540.792720	756.771060	224.321330	592.363590	682.406860	134.458530	520.598330	637.479740	226.854830	515.310240	767.882870	-168.036680	603.759950	719.120180	-112.123740	504.591220	659.067630	-160.260160	474.649840	553.625180	217.171480	468.426480	525.162050	98.325760	475.863100	528.707210	-150.242510	498.459990	520.084590	-36.193940	439.853520	468.961700	236.280550	513.226500	423.993130	184.199710	451.897770	383.787410	253.375110	467.507050	450.442350	-170.674420	516.684630	393.459660	-127.692130	445.752720	409.620540	-181.284300	437.395320	98.095230	255.851520	444.003050	103.448840	164.978070	442.973910	93.640580	-172.212040	464.974270	109.010740	-81.771930	366.739560	70.600560	210.296160	507.425990	80.440840	164.987210	509.351840	63.738530	272.891240	657.167970	50.652440	195.336560	371.545040	75.231090	-115.333720	544.812990	77.038730	-94.775080	523.735960	66.080580	-191.806730	654.594120	48.694870	-127.291540	600.240050	1422.696660	23.883530	485.080900	1549.472290	193.943630	481.774080	1559.465210	-147.699360	521.121220	1502.175050	358.437010	527.493040	1506.503910	-324.941620	516.554080	1469.518070	461.207180	492.234440	1474.834110	-427.376040	672.267580	1462.345950	685.179750	610.724300	1470.369140	711.027770	621.683040	1442.849000	-643.889590	549.280330	1447.226440	-662.802370	600.225280	39.582240	276.783690	593.691650	48.682270	168.211690	585.345090	39.916630	-201.712390	605.838200	51.638130	-101.136400	604.316220	1654.935420	127.369230	662.783080	1645.337770	1.593760	585.417600	1814.561280	32.351320	
230	3.817000	602.878780	1073.252320	158.371920	605.578190	1061.423950	-104.427800	406.348510	1079.047970	36.409800	540.784730	756.746460	224.336260	592.333130	682.447200	134.517230	520.522640	637.543030	226.845870	515.342160	767.894530	-168.036470	603.714170	719.069030	-112.134900	504.595860	659.046260	-160.246980	474.590090	553.615780	217.052900	468.422970	525.142640	98.323730	475.814180	528.710820	-150.257400	498.465520	520.089230	-36.193610	439.858340	468.966710	236.281510	513.138120	423.976070	184.166170	451.898010	383.771700	253.380400	467.509160	450.437260	-170.678280	516.717220	393.494480	-127.699130	445.648280	409.560520	-181.266370	437.407560	98.097440	255.877960	444.032260	103.418250	164.976700	442.973910	93.640590	-172.212020	464.965610	108.972710	-81.791420	366.741330	70.599980	210.296510	507.390870	80.434440	165.002110	509.347900	63.762940	272.886810	657.167850	50.652430	195.336490	371.526120	75.278370	-115.203970	544.812990	77.038730	-94.775080	524.142030	66.220490	-191.693040	654.585750	48.663020	-127.308980	600.161870	1422.720830	23.901340	485.083920	1549.472660	193.945300	481.733250	1559.468990	-147.716900	520.725710	1502.126710	358.429080	527.463260	1506.599370	-324.959230	515.926700	1469.725710	461.361210	492.231380	1474.805790	-427.316010	672.110170	1462.266110	685.231750	610.409240	1470.286380	711.055850	621.468870	1443.021730	-643.909120	549.150880	1447.334840	-662.784120	600.168880	39.580620	276.763310	593.670780	48.654750	168.206380	585.345090	39.916630	-201.712390	605.857910	51.610370	-101.142430	604.320190	1654.929930	127.357470	662.657900	1645.329830	1.589580	585.323360	1814.578370	32.371240	
231	3.833000	602.985840	1073.322270	158.351670	605.540530	1061.418330	-104.387430	406.323210	1078.998290	36.449760	540.782290	756.738650	224.341540	592.316960	682.476500	134.553970	520.455320	637.574520	226.838460	515.358640	767.920650	-168.020940	603.679810	719.067200	-112.129500	504.583980	659.018920	-160.269610	474.554530	553.604000	216.962750	468.424500	525.130430	98.322470	475.767580	528.717530	-150.280180	498.459290	520.101680	-36.194240	439.859070	468.978520	236.279420	513.059140	423.964720	184.139400	451.897830	383.756960	253.385360	467.490480	450.437040	-170.684660	516.715390	393.507720	-127.718520	445.504760	409.489780	-181.236710	437.420040	98.099500	255.900330	443.981230	103.436690	165.012880	442.973910	93.640590	-172.212040	464.962160	108.957590	-81.799170	366.732180	70.602960	210.294720	507.321440	80.403320	164.995650	509.344600	63.775510	272.885590	657.167660	50.652400	195.336320	371.524630	75.313410	-115.168840	544.812990	77.038730	-94.775080	524.371770	66.296960	-191.629580	654.560120	48.607920	-127.347090	600.070370	1422.730220	23.903450	485.086300	1549.473140	193.946880	481.704530	1559.505370	-147.673970	520.370240	1502.118290	358.441740	527.443300	1506.701660	-324.961330	515.359500	1470.031370	461.536220	492.218440	1474.835330	-427.212620	671.996400	1462.219600	685.252010	610.265560	1470.239260	711.073490	621.346130	1443.209720	-643.900820	549.085210	1447.425900	-662.710820	600.035340	39.577890	276.716670	593.762450	48.737320	168.173250	585.345090	39.916630	-201.712390	605.885130	51.581520	-101.119630	604.325010	1654.918210	127.363940	662.496340	1645.332890	1.562570	585.233220	1814.569460	32.383250	
